<svg width="308" xmlns="http://www.w3.org/2000/svg" height="308" id="screenshot-1a4cba4f-3b2b-80c8-8006-b891b417aa2c" viewBox="0 0 308 308" xmlns:xlink="http://www.w3.org/1999/xlink" fill="none" version="1.1"><g id="shape-1a4cba4f-3b2b-80c8-8006-b891b417aa2c"><defs><clipPath id="frame-clip-1a4cba4f-3b2b-80c8-8006-b891b417aa2c-render-1" class="frame-clip frame-clip-def"><rect rx="0" ry="0" x="0" y="0" width="308" height="308" transform="matrix(1.000000, 0.000000, 0.000000, 1.000000, 0.000000, 0.000000)"/></clipPath></defs><g class="frame-container-wrapper"><g class="frame-container-blur"><g class="frame-container-shadows"><g clip-path="url(#frame-clip-1a4cba4f-3b2b-80c8-8006-b891b417aa2c-render-1)" fill="none"><g class="fills" id="fills-1a4cba4f-3b2b-80c8-8006-b891b417aa2c"><rect width="308" height="308" class="frame-background" x="0" transform="matrix(1.000000, 0.000000, 0.000000, 1.000000, 0.000000, 0.000000)" style="fill: rgb(255, 255, 255); fill-opacity: 1;" ry="0" rx="0" y="0"/></g><g class="frame-children"><g id="shape-1a4cba4f-3b2b-80c8-8006-b891d0771123"><defs><pattern patternUnits="userSpaceOnUse" x="105.5" y="105.5" width="97" height="97" patternTransform="matrix(1.000000, 0.000000, 0.000000, 1.000000, 0.000000, 0.000000)" id="fill-0-render-2"><g><rect width="97" height="97" style="fill: rgb(0, 0, 0); fill-opacity: 1;"/><rect width="97" height="97" style="fill: rgb(0, 0, 0); fill-opacity: 1;"/></g></pattern></defs><g class="fills" id="fills-1a4cba4f-3b2b-80c8-8006-b891d0771123"><path d="M109.78173828125,105.50048828125C107.42529296875,105.50048828125,105.5068359375,107.42333984375,105.5068359375,109.779296875L105.5068359375,179.326171875C105.5068359375,179.345703125,105.5029296875,179.365234375,105.5029296875,179.384765625C105.4990234375,179.521484375,105.4990234375,179.662109375,105.5029296875,179.798828125C105.5029296875,179.818359375,105.5068359375,179.837890625,105.5068359375,179.857421875L105.5068359375,198.21875C105.5068359375,198.80859375,105.6201171875,199.37158203125,105.8349609375,199.88720703125C105.9443359375,200.14111328125,106.0771484375,200.38720703125,106.23388671875,200.61376953125C106.99951171875,201.7509765625,108.30859375,202.49755859375,109.78173828125,202.49755859375L128.2412109375,202.49755859375C128.3544921875,202.50146484375,128.4677734375,202.50146484375,128.5810546875,202.49755859375L198.2216796875,202.49755859375C200.57763671875,202.49755859375,202.5,200.57470703125,202.5,198.21875L202.5,171.86572265625C202.5,169.509765625,200.5771484375,167.5869140625,198.2216796875,167.5869140625L165.10498046875,167.5869140625L193.97412109375,138.7138671875C195.642578125,137.04541015625,195.642578125,134.32958984375,193.97412109375,132.6611328125L175.3388671875,114.02587890625C174.50634765625,113.19384765625,173.40869140625,112.779296875,172.310546875,112.779296875C171.21630859375,112.779296875,170.1181640625,113.19384765625,169.2822265625,114.02587890625L154.90625,128.40576171875L154.91015625,128.40576171875C154.90625,128.40966796875,154.90234375,128.40966796875,154.8984375,128.41357421875C154.8984375,128.41748046875,154.89453125,128.42138671875,154.890625,128.42529296875L140.41259765625,142.9033203125L140.41650390625,109.77880859375C140.41650390625,107.4228515625,138.494140625,105.5,136.1376953125,105.5ZM109.78173828125,107.0166015625L136.134765625,107.0166015625C137.67822265625,107.0166015625,138.8974609375,108.23583984375,138.8974609375,109.779296875L138.8974609375,129.3720703125L107.015625,129.3720703125L107.015625,109.779296875C107.015625,108.23583984375,108.23876953125,107.0166015625,109.7822265625,107.0166015625ZM172.31494140625,114.28076171875C173.01806640625,114.28076171875,173.7216796875,114.5546875,174.2685546875,115.09765625L192.90380859375,133.73291015625C193.994140625,134.8232421875,193.994140625,136.54638671875,192.90380859375,137.63671875L179.05517578125,151.4892578125L156.5126953125,128.94677734375L170.365234375,115.09765625C170.912109375,114.55078125,171.61572265625,114.28076171875,172.31884765625,114.28076171875ZM155.43408203125,130.02392578125L177.9765625,152.56689453125L162.7373046875,167.80615234375L162.7412109375,167.80224609375C162.7373046875,167.80615234375,162.7333984375,167.81005859375,162.7333984375,167.81396484375L162.1708984375,168.37646484375L140.41748046875,146.623046875L140.41748046875,145.04833984375ZM107.015625,130.8876953125L138.8974609375,130.8876953125L138.8974609375,153.2431640625L107.015625,153.2431640625ZM140.4140625,148.7607421875L161.0966796875,169.44384765625L153.46923828125,177.0712890625L153.47314453125,177.0712890625C153.46923828125,177.0751953125,153.46533203125,177.0791015625,153.46533203125,177.0830078125L140.41796875,190.13037109375ZM107.015625,154.75927734375L138.8974609375,154.75927734375L138.8974609375,177.11474609375L107.015625,177.11474609375ZM163.5859375,169.099609375L177.1103515625,169.099609375L177.1103515625,200.98193359375L154.7548828125,200.98193359375L154.7548828125,177.92724609375ZM178.62548828125,169.099609375L198.21875,169.099609375C199.76220703125,169.099609375,200.9814453125,170.32275390625,200.9814453125,171.8662109375L200.9814453125,198.2197265625C200.9814453125,199.76318359375,199.76171875,200.98193359375,198.21875,200.98193359375L178.62548828125,200.98193359375ZM107.01171875,178.62646484375L138.8935546875,178.62646484375L138.8935546875,198.21923828125C138.8935546875,199.7626953125,137.67431640625,200.98193359375,136.130859375,200.98193359375L109.77783203125,200.98193359375C109.69970703125,200.98193359375,109.62158203125,200.97802734375,109.54345703125,200.97021484375C109.51220703125,200.96630859375,109.48095703125,200.96630859375,109.44970703125,200.96240234375C109.38330078125,200.95458984375,109.31689453125,200.94677734375,109.25048828125,200.93115234375C109.22314453125,200.92724609375,109.19580078125,200.91943359375,109.16845703125,200.91552734375C109.10986328125,200.89990234375,109.05078125,200.88818359375,108.9921875,200.86865234375C108.8671875,200.83349609375,108.75,200.79052734375,108.6328125,200.7353515625C108.60546875,200.7236328125,108.58203125,200.7080078125,108.5546875,200.7001953125C108.140625,200.4970703125,107.78515625,200.1923828125,107.51904296875,199.8173828125L107.52294921875,199.8212890625C107.51513671875,199.8017578125,107.50341796875,199.7822265625,107.48779296875,199.7626953125C107.39013671875,199.6181640625,107.30810546875,199.4658203125,107.23779296875,199.29736328125C107.16357421875,199.11767578125,107.10498046875,198.92626953125,107.06591796875,198.72705078125C107.03466796875,198.56298828125,107.01513671875,198.39111328125,107.01513671875,198.21923828125L107.01513671875,179.802734375L107.01904296875,179.802734375L107.01904296875,179.720703125L107.01904296875,179.455078125L107.01904296875,179.376953125ZM153.23828125,179.443359375L153.23828125,200.9814453125L139.3896484375,200.9814453125C140.02294921875,200.23486328125,140.40966796875,199.27001953125,140.40966796875,198.21875L140.40966796875,192.27197265625Z" fill="url(#fill-0-render-2)"/></g></g></g></g></g></g></g></g></svg>