<?xml version="1.0" encoding="utf-8" ?><svg xmlns="http://www.w3.org/2000/svg" xmlns:xlink="http://www.w3.org/1999/xlink" width="1024" height="1024" viewBox="0 0 1024 1024"><path transform="scale(2 2)" d="M193.006 176.761C192.761 174.737 192.978 168.59 192.993 166.286L192.974 83.4265C192.969 80.4629 193.14 78.8302 196.144 77.7508L455.599 77.7457C462.881 77.7463 469.236 75.5579 469.247 83.7433L469.25 229.103C469.25 235.206 469.747 274.849 468.993 277.074C467.493 281.503 436.673 279.171 431.127 279.179L221.404 279.24C216.983 279.24 197.348 279.757 194.558 278.679C191.849 275.823 193.202 267.863 192.942 263.938C191.988 249.535 199.338 253.591 199.607 256.165C200.154 261.393 199.989 266.85 200 272.13L257.625 272.13L462.244 272.13L462.244 84.8717L200 84.8717L200.006 166.539C200.007 170.85 201.232 184.272 193.006 176.761Z"/><path transform="scale(2 2)" d="M295.757 174.45L251.707 174.447C244.979 174.451 238.251 174.502 231.522 174.431C224.44 174.357 226.753 164.469 226.751 158.775L226.744 121.689C226.707 113.208 225.053 110.57 234.546 110.618L276.994 110.604C282.085 110.603 298.592 110.002 302.143 111.466C303.384 112.887 303.017 118.97 303.014 121.145L303.015 157.866C303.028 167.203 306.027 174.269 295.757 174.45ZM233.75 117.743C233.603 123.222 233.748 129.139 233.751 134.654L233.75 167.264L275.403 167.258C281.327 167.257 290.004 166.978 295.757 167.264L295.757 117.743L233.75 117.743Z"/><path transform="scale(2 2)" d="M433.11 124.153L358.411 124.153C352.909 124.152 325.408 124.746 322.728 123.658C319.936 122.525 320.126 117.852 324.228 116.756L430.504 116.771C438.558 116.8 437.401 123.303 433.11 124.153Z"/><path transform="scale(2 2)" d="M114.018 187.681C91.7543 190.502 74.2314 142.387 97.4643 128.587C102.039 125.87 105.788 125.083 111.008 124.153C157.178 128.929 136.248 182.874 114.018 187.681ZM111.008 131.618C79.0568 134.501 97.2482 182.2 113.775 180.402L114.018 180.374C127.804 177.219 145.878 131.735 111.008 131.618Z"/><path transform="scale(2 2)" d="M261.302 140.879C255.957 146.601 250.466 152.657 244.739 157.992C240.484 161.508 236.746 157.666 238.164 154.512C238.885 152.91 262.505 128.346 267.196 125.692C269.264 125.782 276.229 133.402 278.986 135.5C281.965 133.831 288.909 126.462 291.735 131.593C293.761 135.269 282.007 143.463 278.986 144.903C275.095 143.253 270.353 137.756 267.196 134.533C265.288 136.936 263.459 138.697 261.302 140.879Z"/><path transform="scale(2 2)" d="M434.004 142.723L336.465 142.74C332.106 142.743 326.843 143.027 322.605 142.238C319.978 141.749 319.706 136.765 323.208 135.5L430.143 135.497C436.456 135.536 439.019 138.78 434.004 142.723Z"/><path transform="scale(2 2)" d="M320.631 158.315C321.316 156.389 321.474 155.787 323.208 154.747C337.852 154.412 352.907 154.891 367.574 154.83C370.949 154.816 371.989 159.749 368.317 161.983C356.207 163.171 337.903 162.07 325.364 161.959C322.012 161.929 321.65 161.2 320.631 158.315Z"/><path transform="scale(2 2)" d="M177.574 206.658C186.177 203.059 199.598 193.743 207.937 188.576C210.686 186.872 212.513 185.542 215.706 184.811C220.413 184.29 222.097 186.57 225.864 186.565C232.24 186.558 257.219 182.366 257.482 189.112C257.637 193.072 254.804 192 252.335 193.314C244.424 197.681 250.903 201.843 233.75 202.383C231.199 212.325 224.554 214.492 216.8 220.042L192.728 237.271C189.108 239.875 185.476 242.49 181.831 245.038C176.901 248.483 175.346 245.755 170.221 243.359L152.75 235.134C152.578 240.148 152.759 245.562 152.75 250.624L152.752 415.009C152.759 442.868 153.359 432.092 125.125 433.947C122.942 434.09 121.598 431.667 121.306 429.649C117.863 405.885 114.872 381.832 112.224 357.969C109.454 372.849 107.282 392.129 105.718 407.302C104.629 412.422 103.719 430.08 101.352 433.025C99.7728 434.99 93.9027 433.968 91.6895 433.979C69.7665 434.085 71.2496 438.067 71.2427 416.352L71.2461 340.819C71.2488 332.249 71.3889 323.376 71.2502 314.841C50.8456 323.582 50.4863 294.896 48.4737 283.135L44.3844 259.545C43.5872 254.997 41.1211 245.1 42.9663 241.001C47.4155 230.967 52.6 221.176 57.2056 211.211C64.2778 195.909 71.1405 195.266 85.8161 190.981C88.2325 190.275 92.6797 188.628 95.0478 188.617C96.3609 189.343 108.971 206.078 112.224 209.34C115.379 205.539 127.793 189.062 129.879 187.699C134.684 188.283 169.001 203.197 177.574 206.658ZM216.905 192.002C213.169 193.581 207.941 197.011 204.36 199.218L187.413 209.573C183.98 211.681 181.313 213.627 177.574 215.171C173.425 212.741 136.051 196.963 132.405 196.585L132.124 196.802C125.934 201.642 115.651 222.796 109.121 216.529C103.223 210.285 97.5149 203.108 91.9298 196.585C82.2071 199.235 70.725 200.506 65.6834 210.322C59.9491 221.487 54.8739 233.285 49.1794 244.446C50.6844 255.784 53.0644 267.157 54.9294 278.441C56.3947 287.308 57.5887 297.3 59.8754 305.855C61.1075 310.465 67.6901 309.526 71.2502 306.106C70.7646 301.608 70.8926 299.576 71.2502 295.151L71.256 250.768C71.2565 246.324 69.2008 229.754 74.4881 230.12C75.3741 230.181 76.5651 230.487 77.1435 231.227C80.2063 235.143 77.2063 272.956 78.3725 283.499L145.753 283.499L145.763 244.737C145.777 241.476 143.591 226.289 148.895 226.214C152.212 226.167 172.781 236.799 177.574 239.04C192.048 229.42 206.068 218.826 220.312 208.855C221.396 208.096 224.329 206.049 225.052 205.334C229.047 201.387 222.145 191.735 216.905 192.002ZM233.75 193.758C232.624 193.83 231.632 193.783 230.837 194.706L230.96 195.087C233.128 195.805 236.554 195.297 238.921 195.095C240.242 194.922 240.612 194.925 241.764 194.292L241.86 194.014C240.338 193.494 235.589 193.723 233.75 193.758ZM78.3725 290.499L78.3725 426.749L95.6553 426.749C96.9156 419.454 97.7612 411.184 98.7587 403.77L107.348 335.596C107.821 331.607 107.545 320.997 112.985 322.737C116.925 323.997 117.846 345.344 118.326 349.556L124.114 396.767C125.199 405.85 126.344 417.838 128.001 426.749L145.753 426.749L145.753 290.499L78.3725 290.499Z"/><path transform="scale(2 2)" d="M433.11 204.622C425.371 204.329 415.756 204.616 407.817 204.613L337.791 204.629C335.7 204.628 326.725 205.268 325.71 203.186C324.593 200.899 325.792 198.77 328.007 197.488C330.038 197.303 333.318 197.441 335.453 197.455L428.711 197.435C435.488 197.393 439.64 201.331 433.11 204.622Z"/><path transform="scale(2 2)" d="M433.11 223.995C429.584 224.224 423.584 224.003 419.868 223.999L330.869 224.002C322.764 223.475 324.258 217.683 328.007 216.749L396.456 216.736C401.547 216.735 431.721 216.213 434.292 217.231C437.673 218.57 435.748 222.994 433.11 223.995Z"/><path transform="scale(2 2)" d="M395.547 243.157C389.818 242.994 384.276 243.146 378.557 243.153L347.427 243.16C341.281 243.159 335.104 243.235 328.965 243.074C324.367 242.953 323.702 236.731 328.959 236.247C331.438 235.784 335.245 236.154 337.821 236.178C343.804 236.236 395.172 235.687 396.552 236.582C400.073 238.868 398.734 241.991 395.547 243.157Z"/><path transform="scale(2 2)" d="M245.118 368.182C229.031 369.835 214.666 358.094 213.085 342C211.504 325.906 223.309 311.593 239.41 310.085C255.41 308.585 269.612 320.3 271.183 336.292C272.754 352.285 261.103 366.539 245.118 368.182ZM241.602 317.249C233.683 317.44 226.477 321.871 222.731 328.851C218.985 335.831 219.278 344.286 223.497 350.99C227.716 357.695 235.212 361.617 243.125 361.26C255.185 360.717 264.559 350.565 264.141 338.501C263.724 326.436 253.671 316.957 241.602 317.249Z"/><path transform="scale(2 2)" d="M382.626 368.326C366.542 368.874 353.063 356.272 352.531 340.187C351.999 324.103 364.615 310.637 380.7 310.12C396.762 309.605 410.205 322.199 410.737 338.261C411.268 354.323 398.687 367.779 382.626 368.326ZM380.8 317.141C368.578 317.622 359.088 327.969 359.663 340.187C360.238 352.405 370.658 361.815 382.871 361.145C394.952 360.483 404.237 350.201 403.668 338.116C403.099 326.03 392.889 316.666 380.8 317.141Z"/><path transform="scale(2 2)" d="M192.013 426.749C192.721 411.547 188.547 396.766 199.338 384.299C204.095 378.805 211.213 375.628 218.445 375.254C219.254 375.096 228.691 375.234 230.302 375.238L261.469 375.241C285.522 375.302 294.604 390.652 294.639 412.878L294.623 426.749C304.937 426.389 317.503 426.747 328.007 426.749C328.397 411.577 324.889 397.07 336.693 385.002C348.059 373.381 359.577 375.259 374.587 375.258L396.048 375.238C423.605 375.237 431.821 385.072 431.802 410.712L431.786 426.749C435.991 426.833 440.261 426.772 444.472 426.749C450.043 428.459 447.18 433.887 445.191 433.913C431.6 434.088 417.885 433.996 404.259 433.996L202.248 434.004C196.881 434.009 184.432 434.535 178.739 433.288C176.938 432.165 177.173 428.809 178.514 427.897C181.37 425.952 188.566 426.737 192.013 426.749ZM218.445 382.333C194.047 385.524 199.551 409.142 199.263 426.749C206.752 426.952 215.195 426.749 222.749 426.748L269.125 426.749C275.11 426.734 281.288 426.652 287.257 426.749L287.273 413.684C287.274 381.923 273.398 382.799 246.891 382.352C238.856 382.217 226.09 381.41 218.445 382.333ZM358.299 382.333C339.146 384.068 335.193 396.95 335.073 413.702L335.033 426.749C342.018 426.973 350.282 426.749 357.358 426.748L401.625 426.749C409.104 426.746 417.113 426.59 424.545 426.749L424.562 412.421C424.571 388.285 420.156 382.002 394.792 382.321C382.694 382.472 370.35 382.11 358.299 382.333Z"/></svg>