<?xml version="1.0" encoding="UTF-8"?>
<svg id="Capa_1" xmlns="http://www.w3.org/2000/svg" version="1.1" viewBox="0 0 1280 900">
  <!-- Generator: Adobe Illustrator 29.0.0, SVG Export Plug-In . SVG Version: 2.1.0 Build 186)  -->
  <defs>
    <style>
      .st0 {
        fill: #f9f9f9;
      }

      .st1 {
        stroke-linejoin: round;
        stroke-width: 5.24px;
      }

      .st1, .st2 {
        stroke: #000;
      }

      .st2 {
        fill: none;
        stroke-miterlimit: 10;
        stroke-width: 7px;
      }
    </style>
  </defs>
  <g>
    <line class="st2" x1="320.63" y1="436.57" x2="927.51" y2="436.57"/>
    <polygon points="911.27 456.61 907.93 453.03 925.63 436.58 907.93 420.13 911.27 416.54 932.82 436.58 911.27 456.61"/>
  </g>
  <g>
    <circle class="st1" cx="262.46" cy="436.57" r="58.16"/>
    <g>
      <path class="st0" d="M237.47,449.48v-19.35h-6.99v-4.62h19.31v4.62h-7.19v19.35h-5.14Z"/>
      <path class="st0" d="M251.16,449.48l9.14-13.05,3.9,2.71-7.09,10.34h-5.96ZM268.29,449.48l-7.43-10.75-9.52-13.22h6.3l7.26,10.62,9.69,13.36h-6.3ZM265.44,438.35l-3.87-2.6,6.71-10.24h5.96l-8.8,12.84Z"/>
      <path class="st0" d="M282.94,449.48v-19.35h-6.99v-4.62h19.31v4.62h-7.19v19.35h-5.14Z"/>
    </g>
  </g>
  <circle class="st1" cx="990.99" cy="436.57" r="58.16"/>
  <g>
    <path class="st0" d="M966.51,449.82c-1.48,0-2.84-.18-4.06-.55-1.22-.36-2.31-.9-3.25-1.61-.95-.71-1.8-1.56-2.55-2.57l3.22-3.66c1.12,1.55,2.23,2.61,3.34,3.17,1.11.56,2.31.84,3.61.84.71,0,1.34-.1,1.9-.29.56-.19,1-.47,1.32-.84.32-.36.48-.8.48-1.3,0-.36-.08-.7-.24-1.01-.16-.31-.39-.58-.68-.82s-.65-.46-1.06-.65c-.41-.19-.87-.36-1.37-.51-.5-.15-1.05-.27-1.64-.36-1.28-.3-2.4-.66-3.36-1.08s-1.76-.95-2.4-1.58c-.64-.63-1.11-1.34-1.42-2.14-.31-.8-.46-1.7-.46-2.71s.23-1.98.69-2.86c.46-.88,1.09-1.64,1.9-2.28.81-.64,1.75-1.13,2.81-1.47,1.06-.34,2.19-.51,3.37-.51,1.46,0,2.74.17,3.84.5,1.1.33,2.05.8,2.86,1.42.81.62,1.49,1.37,2.04,2.26l-3.25,3.15c-.48-.64-1-1.18-1.56-1.61-.56-.43-1.16-.76-1.81-.98-.65-.22-1.32-.33-2-.33-.75,0-1.4.1-1.95.29s-.98.47-1.28.84c-.31.37-.46.81-.46,1.34,0,.41.1.78.31,1.1.21.32.5.6.89.84.39.24.86.45,1.4.63.55.18,1.15.34,1.82.48,1.25.25,2.39.58,3.39.99,1,.41,1.87.91,2.58,1.49.72.58,1.27,1.27,1.66,2.05.39.79.58,1.67.58,2.65,0,1.62-.39,3-1.16,4.14-.78,1.14-1.85,2.02-3.22,2.62-1.37.6-2.97.91-4.79.91Z"/>
    <path class="st0" d="M987.16,449.48l-9.55-23.97h5.44l5,12.98c.27.71.51,1.33.7,1.87.19.54.36,1.04.51,1.51.15.47.29.92.43,1.37s.27.93.41,1.46l-.99.03c.18-.71.37-1.36.55-1.97.18-.6.39-1.24.62-1.9s.51-1.45.86-2.36l4.73-12.98h5.41l-9.62,23.97h-4.49Z"/>
    <path class="st0" d="M1014.72,449.82c-1.85,0-3.54-.31-5.08-.94-1.54-.63-2.87-1.5-3.99-2.62-1.12-1.12-1.98-2.43-2.59-3.94s-.91-3.14-.91-4.9.31-3.38.94-4.88c.63-1.49,1.52-2.8,2.67-3.9,1.15-1.11,2.51-1.97,4.06-2.59,1.55-.62,3.25-.92,5.1-.92,1.28,0,2.5.17,3.66.51,1.16.34,2.23.81,3.18,1.4.96.59,1.76,1.28,2.4,2.05l-3.19,3.36c-.59-.57-1.21-1.06-1.87-1.46-.65-.4-1.33-.71-2.04-.92-.71-.22-1.44-.33-2.19-.33-1.07,0-2.06.19-2.96.58-.9.39-1.69.92-2.38,1.61-.68.69-1.22,1.5-1.59,2.43-.38.94-.57,1.95-.57,3.05s.2,2.08.6,3.03c.4.95.95,1.77,1.64,2.47s1.51,1.24,2.45,1.64c.94.4,1.94.6,3.01.6.75,0,1.47-.11,2.16-.34.69-.23,1.28-.55,1.8-.98.51-.42.91-.92,1.2-1.49.29-.57.43-1.18.43-1.81v-.82l.68.96h-6.85v-4.28h11.09c.02.25.05.56.09.92.03.37.06.73.07,1.08.01.35.02.63.02.84,0,1.55-.28,2.98-.84,4.28-.56,1.3-1.34,2.42-2.33,3.36-.99.94-2.16,1.66-3.51,2.17-1.35.51-2.81.77-4.38.77Z"/>
  </g>
</svg>